<?xml version="1.0" encoding="utf-8"?>
<!-- Generator: Adobe Illustrator 21.1.0, SVG Export Plug-In . SVG Version: 6.00 Build 0)  -->
<svg version="1.1" id="Capa_1" xmlns="http://www.w3.org/2000/svg" xmlns:xlink="http://www.w3.org/1999/xlink" x="0px" y="0px"
	 viewBox="0 0 230 51.6" style="enable-background:new 0 0 230 51.6;" xml:space="preserve">
<style type="text/css">
	.st0{fill:#FFFFFF;}
	.st1{fill:#0856A3;}
	.st2{fill:none;stroke:#FFFFFF;stroke-width:2.4484;stroke-miterlimit:10;}
	.st3{fill-rule:evenodd;clip-rule:evenodd;fill:#FFFFFF;}
</style>
<g>
	<g>
		<path class="st0" d="M229.8,59.1c0,1.9-1.2,3.5-2.7,3.5H2.7c-1.5,0-2.7-1.6-2.7-3.5V3.5C0,1.6,1.2,0,2.7,0h224.4
			c1.5,0,2.7,1.6,2.7,3.5V59.1z"/>
		<path class="st1" d="M227.8,46.8c0,1.5-1.2,2.6-2.7,2.6H4.9c-1.5,0-2.7-1.2-2.7-2.6V4.9c0-1.5,1.2-2.6,2.7-2.6h220.2
			c1.5,0,2.7,1.2,2.7,2.6V46.8z"/>
		<path class="st0" d="M8.9,42.8v-1.9h0.6c1.2,0,2.1-0.3,2.8-0.8c0.7-0.6,1.3-1.6,1.9-3L25.5,8.9h6.6l12.3,29.2c0.5,1.2,1,2,1.6,2.3
			c0.5,0.3,1.4,0.5,2.6,0.5h0.7v1.9H27.9v-1.9h1.7c1,0,1.6-0.1,2-0.3c0.3-0.2,0.5-0.5,0.5-1c0-0.1,0-0.4-0.1-0.6
			c-0.1-0.3-0.2-0.6-0.3-0.9l-1.5-3.7H18c-0.3,0.8-0.5,1.5-0.7,2c-0.1,0.5-0.2,1-0.2,1.4c0,1,0.3,1.7,0.9,2.2
			c0.6,0.5,1.5,0.8,2.6,0.8h0.6v1.9H8.9z M19.2,31.5H29L24,19L19.2,31.5z"/>
		<path class="st0" d="M66.9,37.7c0,1.4,0.2,2.3,0.5,2.7c0.3,0.4,1,0.6,1.9,0.6h1.3v1.9H50.7v-1.9h1.6c1,0,1.6-0.2,1.9-0.6
			c0.3-0.4,0.5-1.3,0.5-2.7V13.9c0-1.4-0.2-2.3-0.5-2.6c-0.3-0.4-1-0.5-1.9-0.5h-1.6V8.9h19.9v1.8h-1.3c-1,0-1.6,0.2-1.9,0.5
			c-0.3,0.4-0.5,1.2-0.5,2.6v8.6h8.8v-8.6c0-1.4-0.2-2.3-0.5-2.6c-0.3-0.4-1-0.6-1.9-0.6h-1.2V8.9H92v1.8h-1.6c-1,0-1.6,0.2-1.9,0.5
			c-0.3,0.4-0.5,1.2-0.5,2.6v23.8c0,1.4,0.2,2.3,0.5,2.7c0.3,0.4,1,0.6,1.9,0.6H92v1.9H72.1v-1.9h1.2c1,0,1.6-0.2,1.9-0.6
			c0.3-0.4,0.5-1.3,0.5-2.7V25.9h-8.8V37.7z"/>
		<path class="st0" d="M163.8,8.9c4.2,0,7.3,0.6,9.3,1.8c2,1.2,3,3.1,3,5.7c0,2.2-0.9,3.9-2.6,5.3c-1.7,1.3-4.4,2.3-7.8,2.8
			c2.7,0.5,4.7,1.3,5.8,2.2c1.1,0.9,1.9,2.2,2.2,4.1c0.2,0.7,0.2,2,0.3,3.9c0,0.5,0,1,0,1.3c0,1.6,0.2,2.7,0.6,3.2
			c0.3,0.5,1,0.8,1.8,0.8c0.8,0,1.3-0.3,1.7-1c0.4-0.7,0.6-1.6,0.6-2.9v-0.4h1.9v0.6c0,2.6-0.7,4.4-2.1,5.4c-1.4,1-3.8,1.6-7.3,1.6
			c-3.5,0-6-0.7-7.4-2.1c-1.4-1.4-2.1-4.1-2.2-8.1c0-3.3-0.6-5.5-1.6-6.4c-1-0.9-3-1.4-6.1-1.4h-0.6v12.5c0,1.4,0.2,2.3,0.5,2.7
			c0.3,0.4,1,0.6,1.9,0.6h1.3v1.9h-19.9v-1.9h1.6c1,0,1.6-0.2,1.9-0.6c0.3-0.4,0.5-1.3,0.5-2.7V13.9c0-1.4-0.2-2.3-0.5-2.6
			c-0.3-0.4-1-0.6-2-0.6h-1.6V8.9H163.8z M153.4,23.3h3.2c2.2,0,3.8-0.4,4.6-1.3c0.8-0.9,1.3-2.4,1.3-4.7c0-2.5-0.4-4.3-1.3-5.2
			c-0.9-1-2.4-1.4-4.6-1.4c-1.3,0-2.1,0.2-2.5,0.5c-0.4,0.3-0.6,1.2-0.6,2.7v0.4V23.3z"/>
		<path class="st0" d="M180.9,42.8v-1.9h0.6c1.2,0,2.1-0.3,2.8-0.8c0.7-0.6,1.3-1.6,1.9-3l11.3-28.1h6.6l12.3,29.2
			c0.5,1.2,1,2,1.6,2.3c0.5,0.3,1.4,0.5,2.6,0.5h0.7v1.9h-21.3v-1.9h1.6c1,0,1.6-0.1,2-0.3c0.3-0.2,0.5-0.5,0.5-1
			c0-0.1,0-0.4-0.1-0.6c-0.1-0.3-0.2-0.6-0.3-0.9l-1.5-3.7H190c-0.3,0.8-0.5,1.5-0.7,2c-0.1,0.5-0.2,1-0.2,1.4c0,1,0.3,1.7,0.9,2.2
			c0.6,0.5,1.5,0.8,2.6,0.8h0.6v1.9H180.9z M191.1,31.5h9.9L196,19L191.1,31.5z"/>
		<g>
			<path class="st2" d="M114.6,2.3c13,0,23.6,10.5,23.6,23.5c0,13-10.6,23.5-23.6,23.5c-13,0-23.6-10.5-23.6-23.5
				C91,12.8,101.6,2.3,114.6,2.3L114.6,2.3z"/>
			<path class="st3" d="M115.5,47.9c0,0-0.1,0-0.3,0c-0.2,0-0.3,0-0.4,0c0,0-0.3-0.1-0.3-0.1c0,0,0.1,0,0-0.1c0,0,0,0,0-0.1
				c0,0-0.3-0.1-0.2-0.1c0,0,0.4-0.1,0.4-0.1c0-0.1-0.1-0.1,0-0.1c0.1,0,0.3-0.1,0.3-0.1c0,0,0-0.1-0.1-0.1c0,0-0.3-0.1-0.3-0.1
				c0-0.1,0-0.1,0.1-0.1c0.1,0,0.3-0.1,0.3-0.1c0,0-0.1-0.1,0.1-0.2c0.1-0.1,0.3,0,0.3-0.1c0-0.1-0.5-0.1-0.4-0.2
				c0.1,0,0.5,0,0.6-0.1c0.1-0.1,0-0.3,0.1-0.3c0.1,0,0.9-0.1,1-0.2c0-0.1,0.3-0.3,0.3-0.3s-0.3-0.2-0.2-0.2c0.1,0,0.5-0.1,0.5-0.1
				c0,0,0.3-0.1,0.4-0.2c0.1-0.1,0.2-0.2,0.3-0.3c0.1-0.1,0.2-0.2,0.3-0.3c0.1-0.1,0.2-0.2,0.2-0.3c0.1-0.1,0.3-0.1,0.3-0.2
				c0-0.1,0-0.1,0-0.2c0-0.1,0-0.4,0.1-0.4c0.1,0,0.3-0.2,0.4-0.3c0.1-0.1,0.3,0,0.4-0.1c0.2-0.1,0.4-0.2,0.5-0.2c0.1,0,0.1,0,0.2,0
				c0.1-0.1,0.1-0.1,0.2-0.2c0.1-0.1,0-0.3,0.2-0.4c0.2-0.1,0.3-0.1,0.3-0.2c0-0.1,0.1-0.3,0.1-0.4c0.1-0.1,0.1-1.1,0.2-1.1
				c0.1,0,0.2-0.1,0.3-0.1c0.1-0.1,0.2-0.3,0.2-0.3c0.1,0,0.2-0.2,0.2-0.2c0.1,0,0.2-0.1,0.2-0.2c0,0,0.1,0,0.1-0.2
				c0-0.2,0-0.4,0-0.4c0-0.1-0.3-0.1-0.4-0.2c-0.1-0.1-0.2,0-0.3-0.1c-0.1-0.1-0.2-0.3-0.4-0.3c-0.2,0-0.8,0.1-0.8,0
				c-0.1-0.1-0.2-0.2-0.3-0.1c-0.1,0.1-0.1,0.1-0.1,0.1c0-0.1,0-0.3-0.1-0.3c-0.1,0-0.4-0.2-0.5-0.2c-0.1,0.1-0.6,0.6-0.6,0.5
				c0-0.1,0.3-0.4,0.2-0.5c-0.1-0.1-0.3,0-0.4,0.1c-0.1,0.1-0.3,0.1-0.4,0.1c0,0,0.1-0.2,0.2-0.3c0.1,0,0.3-0.2,0.3-0.3
				c0-0.1-0.2-0.2-0.2-0.3c0-0.1-0.1-0.6-0.3-0.5c-0.1,0.1-0.3,0.7-0.4,0.6c-0.1,0-0.4-0.2-0.5-0.2c-0.1,0.1-0.1,0.3-0.3,0.2
				c-0.1-0.1-0.3-0.6-0.3-0.8c0-0.2,0.1-0.3,0-0.5c-0.2-0.2-1-0.7-0.8-0.8c0.2-0.1,0.3-0.5,0.1-0.4c-0.1,0.1-0.5,0.3-0.7,0.2
				c-0.2-0.1-0.4-0.3-0.5-0.2c-0.1,0.1-0.5,0-0.4,0c0.1,0-0.1-0.2-0.1-0.2c0,0-1-0.1-1-0.1s-0.1,0.3-0.1,0.2c0-0.1-0.2-0.3-0.2-0.3
				s-0.4,0.4-0.6,0.3c-0.2,0-0.4-0.1-0.6,0.3c-0.2,0.4-0.5,0.4-0.5,0.3c-0.1-0.1-0.4-0.2-0.5-0.2c-0.2,0,0,0.3-0.4,0.1
				c-0.4-0.2-0.7-0.3-0.7-0.4c0-0.2,0.1-0.8,0.1-0.9c0-0.1-0.9-0.3-1.1-0.5c-0.2-0.1-0.4-0.5-0.3-0.5c0.1,0,0.5-0.9,0.3-1
				c-0.2-0.1-1-0.1-1.1,0.1c0,0.2-0.2,0.8-0.4,0.8c-0.2,0-1.3,0.1-1.4-0.9c-0.1-0.9-0.1-1,0-1.1c0.1-0.1,0.2-0.2,0.1-0.2
				c-0.1-0.1-0.2-0.5-0.1-0.6c0.1-0.1,0.5-0.3,0.5-0.3c0,0,0.1-0.2,0.3-0.2c0.1,0.1,0.3,0,0.5,0c0.2,0,0.4,0.2,0.6,0.2
				c0.2,0,0.3-0.1,0.3-0.2c0,0,0.1-0.3,0.3-0.2c0.2,0.1,0.2-0.1,0.4,0.1c0.1,0.2,0.5,0.1,0.6,0.2c0.1,0,0.2,0,0.3,0.1
				c0.1,0.1,0.2,0.2,0.3,0.3c0,0.1,0,0.2,0.1,0.4c0.1,0.2,0.3,0.4,0.3,0.4c0,0,0.2,0.1,0.3,0.1c0.1,0,0.1-0.3,0.1-0.5
				c0-0.2-0.1-0.4-0.1-0.5c0-0.2-0.3-0.4-0.3-0.6c0-0.2,0-0.6,0.2-0.7c0.1-0.1,0.7-0.6,0.9-0.7c0.2-0.1,0.6-0.3,0.6-0.4
				c0-0.1-0.1-0.3-0.1-0.4c0-0.1,0.1-0.3,0.2-0.4c0-0.1,0.1-0.2,0.2-0.4c0.1-0.1,0.2-0.4,0.3-0.5c0.1-0.1,0.6-0.2,0.7-0.3
				c0.1-0.1,0.4,0,0.4-0.2c0-0.1-0.4-0.1-0.3-0.3c0.1-0.2,0.3-0.4,0.5-0.6c0.1-0.2,1.2-0.7,1.1-0.6c-0.1,0.1-0.3,0.2-0.3,0.4
				c0,0.2,0,0.4,0.2,0.3c0.2-0.1,0.2-0.2,0.6-0.4c0.4-0.2,0.6-0.3,0.7-0.4c0.1-0.1,0.5-0.1,0.4-0.3c-0.1-0.2-0.2-0.6-0.3-0.5
				c-0.1,0.1-0.4,0.4-0.4,0.4c-0.3-0.2-0.3-0.2-0.6-0.3c0,0-0.2,0.2-0.2,0c0-0.2,0.1-0.4,0.1-0.4s0.2,0.2,0.2,0c0-0.2,0-0.4,0-0.5
				c0-0.1-0.9,0-0.9-0.2c0-0.1,0.9-0.3,0.9-0.2c0,0.1,0.1,0.2,0.2,0.3c0.1,0.1,0.4,0.2,0.4,0.1c-0.1-0.2-0.6-0.5-0.4-0.5
				c0.2,0.1,0.5,0.2,0.7,0.1c0.1-0.1,0.7-0.8,0.8-0.6c0.1,0.2-0.5,1.3-0.4,1.4c0.1,0.1,1,0.2,0.9,0.2c0,0.1-0.5,0.1-0.3,0.3
				c0.2,0.2,0.4,0.3,0.5,0.1c0.1-0.2,0.2-0.4,0.2-0.3c0.1,0.1,0.2,0.2,0.2,0.2s0.2,0,0.2-0.1c0.1-0.1,0.1-0.3,0.1-0.5
				c-0.1-0.2-0.6-0.6-0.8-0.7c-0.2-0.1-0.3-0.2-0.2-0.3c0.1-0.1,0.2-0.3,0.3-0.4c0-0.1-0.2-0.4-0.2-0.5c0,0,0.3-0.4,0.1-0.5
				c-0.2-0.2-0.4-0.4-0.6-0.3c-0.1,0.1-0.8,0.5-0.6,0.3c0.2-0.2,0.8-0.3,0.6-0.6c-0.2-0.2-0.5-0.2-0.6-0.4c-0.1-0.2-0.5-0.7-0.5-0.7
				s0.2-0.2,0.1-0.3c-0.1-0.1-0.5-1-0.5-1s-0.4-0.7-0.4-0.5c-0.1,0.2-0.6,1.2-0.8,1.1c-0.2-0.1-0.5-0.4-0.4-0.5
				c0-0.1,0.1-0.7-0.1-0.8c-0.1-0.1-0.7-0.2-0.7-0.4c0-0.2-0.3-0.5-0.4-0.5c-0.1,0-0.4-0.1-0.4,0c0,0.1,0,0.2-0.1,0.1
				c-0.1,0-0.3-0.1-0.3-0.1c-0.1,0-0.4,0-0.4,0.1c-0.1,0.2,0.1,0.6,0,0.7c-0.1,0.1-0.1,0.1,0,0.3c0.1,0.1,0.1,0.2,0.1,0.4
				c0,0.1-0.6,0.1-0.1,0.6c0.5,0.5,0.5,0.7,0.4,1c-0.1,0.3-0.5,0.7-0.6,0.8c-0.1,0.1-0.2,0.1-0.2,0.2c0,0.1,0,0.4,0,0.5
				c0,0.1,0.1,0.3,0.1,0.4c0,0.1,0,0.6-0.2,0.5c-0.2,0-0.3-0.2-0.4-0.4c-0.1-0.2-0.3-0.2-0.3-0.3c0-0.1,0.2-0.1,0.1-0.2
				c-0.1-0.1-0.2-0.1-0.1-0.3c0-0.1,0.2-0.1,0.1-0.3c-0.1-0.2-0.2-0.4-0.4-0.4c-0.2,0-0.9-1.5-1.1-1.6c-0.1-0.1-0.7-0.3-0.9-0.1
				c-0.2,0.2-0.2,0.7-0.3,0.6c-0.1-0.1-0.3,0.7-0.4,0.6c-0.2-0.1-0.4-1-0.4-1.3c0.1-0.3,0.1-0.8,0.3-1c0.3-0.3,1-1,1-1
				s-0.1-0.1,0.1-0.2c0.1-0.1,0.2-0.2,0.2-0.2c0.1,0,0.4-0.1,0.4-0.2c0-0.1,0.3-0.5,0.3-0.3c0.1,0.1-0.3,0.6-0.2,0.7
				c0.1,0.1,0.4,0,0.5,0.2c0.1,0.2,0,0.3,0.2,0.1c0.2-0.2,0.2-0.7,0.4-0.5c0.2,0.2,0.8,0.3,0.8,0.3c0-0.1-0.1-0.2-0.3-0.5
				c-0.3-0.3-0.8-0.4-0.7-0.5c0.1-0.1,0.3-0.1,0.4-0.3c0-0.2,0.1-0.5,0.2-0.5c0.1,0,0-0.8,0-0.8s0.3-0.5,0.1-0.6
				c-0.2-0.1-0.8-0.4-0.7-0.4c0.1,0,1-0.4,1-0.2c0,0.2,0.3,0.3,0.3,0.2c0-0.2,0.2-0.5,0.4-0.2c0.2,0.3,1.3,1.6,1.2,1.8
				c0,0.2,0.1,0.3,0.1,0.3s1,0,0.8,0.2c-0.1,0.2-0.2,0.4-0.4,0.2c-0.1-0.1-0.3-0.4-0.5-0.4c-0.2,0-0.3,0-0.4,0.3
				c0,0.3,0.3,0.4,0,0.4c-0.4,0-0.8-0.2-0.8,0.2c-0.1,0.4-0.4,0.6-0.2,0.7c0.1,0.1,0.9-0.6,1.1-0.3c0.1,0.2,0.3,0.2,0.3,0.4
				c0,0.2,0.2,0.1,0.3,0.2c0.1,0.1,0.2,0.5,0.4,0.5c0.1,0,0.3,0,0.4,0.1c0.1,0.1,1,0.2,0.9,0.2c-0.1,0-1-0.9-0.8-0.9
				c0.2,0,1.2,1,1.2,0.8c0-0.2-0.2-0.5-0.2-0.5c0.1,0,0.4-0.1,0.3-0.3c-0.1-0.1-0.7-0.6-0.8-0.7c-0.1-0.1-0.5-1.1-0.2-1
				c0.2,0.1,0.6,0.2,0.6,0.5c0,0.2,0,0.2,0.1,0.3c0.1,0.1,0.3,0.4,0.4,0.2c0.1-0.2,0-0.7,0.2-0.8c0.1-0.1,0.3-0.2,0.2-0.4
				c-0.1-0.2-0.6-0.4-0.7-0.5c-0.1-0.1-1-0.7-1.1-0.8c-0.1-0.1-0.2-0.3-0.1-0.5c0.1-0.2,0.6-0.2,0.3-0.3c-0.2-0.1-0.5,0.1-0.5,0.1
				s-0.4,0.1-0.2-0.1c0.1-0.2,0.4-0.1,0.2-0.2c-0.2-0.1-0.5-0.2-0.6-0.1c-0.1,0-0.5-0.1-0.3-0.2c0.2-0.1,0.3-0.1,0.3-0.2
				c-0.1-0.1-0.3-0.6-0.4-0.2c-0.1,0.4-0.2,0.3-0.3,0.2c-0.1-0.1-0.2-0.1-0.3-0.2c0-0.2,0.1-0.3,0-0.4c-0.1-0.1-0.2-0.2-0.3-0.3
				c-0.1,0,0-0.1,0-0.2c0.1-0.1-0.1-0.4-0.3-0.4c-0.2,0-0.8,0-0.7,0.1c0,0.1,0.6,0.3,0.6,0.3s0.3,0,0.3,0.1
				c-0.1,0.1-0.3,0.1-0.3,0.3c0,0.1-0.1,0.4-0.2,0.3c-0.2-0.1-0.2-0.3-0.2-0.2c0,0.1-0.2,0.4-0.2,0.3c0-0.1,0.2-0.4,0.1-0.5
				c0-0.1-0.2-0.6-0.2-0.7c-0.1,0-1,0.6-0.9,0.7c0.1,0.1,0.3,0.3,0.2,0.4c0,0.1-0.2,0.1-0.1,0.2c0,0.1,0.1,0.2,0.1,0.3
				c0,0.1-0.1,0.4-0.1,0.4c0,0-0.3-0.1-0.3-0.2c0-0.1-0.2-0.5-0.2-0.6c0-0.1,0.1-0.1,0.1-0.2c0,0-0.2-0.1-0.1-0.2
				c0.1-0.1,0.7-0.7,0.6-0.7c-0.1,0-0.9,0.1-1,0.3c-0.1,0.1-0.4,0.6-0.5,0.8c0,0.3,0,0.6,0.1,0.6c0.1,0.1,0.7,0.1,0.6,0.1
				c-0.2,0.1-0.7,0.2-0.6,0.2c0.1,0,1,0.5,1,0.5s-0.1,0.4,0,0.5c0.1,0,0.2,0,0.1,0.1c0,0.1-0.3,0.1-0.4,0.2c0,0.1,0,0.3-0.1,0.4
				c-0.1,0.1-0.1,0.3-0.2,0.3c-0.1,0-0.4-0.3-0.3-0.5c0.1-0.2,0.2-0.3,0.2-0.4c0-0.1-0.4-0.2-0.4-0.2c0,0-0.1,0.7-0.2,0.6
				c-0.1-0.1-0.2,0-0.1-0.2c0-0.2,0.1-0.4,0-0.5c-0.1-0.1-0.6-0.1-0.5-0.3c0.1-0.2,0.2-0.3,0.1-0.4c0-0.1-0.6-0.6-0.4-0.8
				c0.3-0.3,0.4-0.3,0.3-0.4c-0.1-0.1-0.6-0.1-0.1-0.2c0.4-0.1,0.3,0,0.4,0.1c0.1,0.1,0.2-0.2,0.2-0.2c0-0.1,0.2-0.4,0.2-0.5
				c0.1-0.1,0.4-0.2,0.3-0.3c-0.1-0.1-0.4,0.1-0.6,0c-0.1,0-0.2,0-0.3,0c-0.1,0-0.5,0.2-0.5,0.3c0,0.1,0.1,0.1,0,0.2
				c-0.1,0.2-0.1,0.4-0.1,0.4c0,0.1,0.1,0.2,0,0.4c-0.1,0.2-0.2,0.3-0.2,0.4c0,0.1-0.2,0.1-0.2,0.3c0,0.2,0.2,0.2,0.1,0.3
				c-0.1,0.2-0.1,0.2-0.1,0.2c0,0.1,0.6,0.4,0.6,0.5c-0.1,0.1-0.1,0.6-0.2,0.8c-0.1,0.1-0.4,0.3-0.4,0.3c0,0.1,0.2,0.3,0.1,0.3
				c-0.1,0-0.3-0.1-0.3-0.2c0-0.1,0.2-0.3,0-0.4c-0.2-0.1-0.1-0.2,0-0.2c0.1,0,0.2-0.2,0.3-0.4c0-0.2-0.2-0.6-0.4-0.4
				c-0.2,0.2-0.2,0.2-0.2,0.2s-0.6,0.2-0.3,0.4c0.3,0.2,0.4,0.1,0.4,0.2c0,0.1,0.2,0,0.1,0.1c-0.1,0.1-0.4,0.2-0.4,0.2
				c0,0.1,0.1,0.3,0,0.2c-0.1,0-1,0-1.1-0.1c-0.1-0.1-0.5-0.4-0.6-0.2c-0.1,0.2-0.4,0.4-0.3,0.5c0.1,0.1,0.2,0.3,0.1,0.4
				c-0.1,0.1-0.2,0.4-0.3,0.3c-0.1-0.2-0.2-0.5-0.3-0.6c-0.1-0.1-0.2-0.1-0.2-0.1c-0.1,0.1-0.1,0.1-0.2,0.1c0,0-0.7,0.1-0.8,0.1
				c-0.1,0-0.1-0.1,0-0.1c0.1-0.1,0.2-0.2,0.2-0.2s-0.1-0.3-0.3-0.3c-0.2,0-0.3,0.1-0.4,0.1c-0.1-0.1-0.8-0.4-0.9-0.3
				c-0.1,0.2-0.2,0.3-0.3,0.2c-0.1,0,0-0.5-0.1-0.4c-0.1,0.1-0.3,0.5-0.3,0.5c0,0-0.1-0.6-0.2-0.6c-0.1,0.1-0.1,0.2-0.1,0.2
				c0,0.1,0,0.1-0.1,0.3c-0.1,0.1-0.3-0.1-0.3,0c-0.1,0.2-0.1,0.2-0.3,0.4c-0.1,0.2-0.3,0.4-0.3,0.4s-0.2,0-0.2-0.1
				c0.1-0.1,0-0.3-0.1-0.3c-0.1,0-0.2,0-0.2,0.2c0,0.2,0,0.2,0,0.3c0,0-0.2,0-0.2,0s-0.2-0.3-0.4-0.3c-0.1,0-0.4,0-0.4,0
				s0-0.2-0.2-0.1c-0.2,0.1-0.2,0.2-0.2,0.2c0-0.1-0.1-0.1-0.1-0.1c0,0.1-0.2,0.1-0.2,0.1s-0.2-0.1-0.3-0.1c0,0-0.2,0.2-0.1,0.1
				c0-0.1,0.1-0.3-0.1-0.2c-0.1,0.1-0.2,0.2-0.2,0.3c0,0,0,0,0,0.1c0,0,0-0.1,0-0.2c0,0,0-0.1,0-0.1c0,0-0.1-0.1-0.2,0
				c-0.1,0.1-0.3,0.4-0.3,0.4c0,0,0,0,0,0c0,0-0.1,0.1-0.1,0.1c0,0-0.2,0.3-0.2,0.3c-0.1,0-0.2,0.2-0.2,0.3
				c-0.1,0.1-0.2,0.4-0.2,0.4c0,0-0.2,0.2-0.2,0.3c0,0.1-0.1,0.2-0.1,0.2c0,0,0.1,0.1,0.1,0.2c0,0.1,0,0.2,0,0.2s0.1-0.1,0.1,0
				c0,0.1,0,0.1,0,0.2c0,0-0.1,0.3-0.1,0.2c-0.1-0.1-0.1-0.1-0.1-0.1s-0.2,0.3-0.3,0.4c-0.1,0.1-0.2,0.1-0.2,0.2
				c0,0.1,0.1,0.1,0.1,0.1c0,0,0,0.2,0,0.2c0,0,0.2,0,0.2,0c0,0,0.1-0.1,0.1-0.1c0-0.1,0.1-0.2,0.1-0.1c0,0.1,0,0.2,0,0.2
				c0,0,0,0.1,0,0.1c0,0.1-0.2,0.1-0.2,0.1s-0.1,0.3-0.1,0.3c0,0,0-0.1-0.1,0c0,0.1-0.1,0.2-0.1,0.3c0,0.1,0,0.1,0,0.1
				c0,0.1-0.1,0-0.1,0.3c-0.1,0.3,0,0.4,0,0.5c0,0,0,0.1,0.1,0.2c0.1,0.1,0.2-0.2,0.2-0.1c0,0.1-0.1,0.4-0.1,0.6
				c0.1,0.1,0.2,0,0.2-0.1c0-0.1,0,0.1,0.1,0.1c0.1,0,0.3-0.4,0.2-0.2c0,0.1-0.1,0.1-0.1,0.2c0,0.1,0,0.1,0,0.1s-0.1,0.2-0.1,0.3
				c0,0.1-0.5,0.7-0.6,0.8c-0.1,0.1-0.2,0.3-0.2,0.3c0,0-0.1,0-0.1,0.1c0,0.1,0,0.1,0,0.1c0,0-0.1,0-0.1,0.1c0,0-0.1,0.1-0.1,0.1
				c0,0-0.1,0.1-0.1,0.2c0,0.1-0.1,0-0.1,0.2c0,0.2,0,0.2,0,0.1c0-0.1,0.1-0.2,0.1-0.2c0,0,0.1,0,0.1-0.1c0.1-0.1,0-0.3,0.1-0.3
				c0.1,0,0.1,0.1,0.2-0.1c0.1-0.2,0.1-0.2,0.2-0.2c0.1,0,0.1-0.1,0.1-0.1s0.1-0.3,0.1-0.1c0.1,0.2,0.3,0.2,0.2,0.1
				c-0.1-0.2-0.2-0.3-0.1-0.3c0,0,0.2,0,0.2-0.1c0-0.1,0.4-0.5,0.4-0.7c0-0.1,0.2-0.5,0.3-0.6c0-0.1,0.3-0.7,0.3-0.7
				s0.4-0.6,0.4-0.4c0,0.1,0,0.2-0.1,0.2c-0.1,0-0.1,0-0.1,0.1c-0.1,0.2-0.2,0.3-0.1,0.4c0,0.1-0.1,0.3-0.1,0.3
				c0,0.1-0.1,0.4-0.2,0.5c-0.1,0.1-0.2,0.1-0.2,0.3c0,0.1,0.1,0.1,0.1,0.2c-0.1,0.1-0.1,0.2-0.1,0.3c0,0,0.2-0.2,0.2-0.2
				s0.1-0.1,0.2-0.2c0-0.1,0.1-0.4,0.1-0.4s-0.1-0.2,0.2-0.4c0.2-0.2,0.3-0.3,0.3-0.3c0,0,0.1-0.3,0.2-0.1c0.1,0.1,0.2-0.2,0.2-0.3
				c0-0.1,0.1-0.4,0.1-0.2c0.1,0.2,0.2,0.2,0.2,0.2s0.1,0.1,0.2,0.1c0.1,0,0.1-0.2,0.4,0c0.3,0.2,0.3,0.2,0.4,0.4
				c0.1,0.1,0.4-0.1,0.4,0.3c0,0.4,0,0.6,0.1,0.7c0.1,0.1,0.5,0.6,0.7,0.7c0.1,0.1,0.4,0,0.4,0.3c0.1,0.3,0.3,0.8,0.3,0.8
				s0.1,0.2,0,0.5c-0.1,0.3,0.4,0.3,0.5,0.8c0.1,0.4,0.3,0.7,0.3,1.2c0,0.5-0.3,0.9-0.3,1.3c0,0.4,0.4,1,0.5,1.4
				c0.1,0.4,0.4,0.9,0.5,1.1c0.2,0.1,0.5,0.2,0.6,0.4c0.1,0.2,0.3,0.5,0.3,0.6c0,0.1,0,0.4,0.1,0.5c0.1,0.1,0.3,0.1,0.3,0.3
				c0,0.2,0,0.3,0,0.3s-0.1,0.1-0.1,0.2c0.1,0.1,0.3,0.1,0.4,0.2c0.1,0.1,0.2,0.3,0.2,0.5c0,0.2,0,0.2,0.1,0.3
				c0.1,0.1,0.2,0,0.3,0.1c0.1,0.1,0.1,0,0.1,0.1c0,0.1,0,0.2,0.1,0.2c0,0,0.2,0,0.2-0.2c0-0.1-0.1-0.2-0.2-0.3
				c-0.1-0.2-0.3-0.4-0.3-0.5c0-0.1-0.1-0.2-0.1-0.2c0,0-0.6-0.8-0.6-0.9c0,0-0.2-0.4-0.1-0.4c0.1-0.1,0.2-0.1,0.2,0
				c0.1,0.1,0,0.2,0.1,0.3c0.1,0.1,0,0.3,0.2,0.4c0.2,0.1,0.6,0.7,0.6,0.8c0,0.1,0.2,0.2,0.4,0.4c0.2,0.2,0.3,0.2,0.4,0.5
				c0.1,0.2,0.4,0.3,0.3,0.5c-0.1,0.2-0.1,0.2-0.1,0.3c0,0.1,0.3,0.3,0.5,0.5c0.3,0.2,0.9,0.4,1.2,0.5c0.2,0.1,0.7,0.5,0.8,0.4
				c0.1-0.1,0.3-0.3,0.4-0.3c0.1,0,0.1,0.2,0.3,0.2c0.2,0,0.4,0.3,0.5,0.4c0.1,0.1,0.5,0.3,0.6,0.3c0.1,0.1,0.2-0.3,0.4,0.2
				c0.2,0.4,0.3,0.4,0.4,0.6c0.1,0.2,0.8,0.5,0.8,0.6c0,0.1,0.4,0.3,0.6,0.2c0.3-0.1,0.3-0.3,0.5-0.1c0.2,0.1,0.4,0,0.4,0.2
				c0,0.2,0.3,0.4,0.1,0.7c-0.3,0.3-0.8,0.8-0.9,1c0,0.2,0.1,0.7,0.1,0.7s-0.4,0.3-0.3,0.6c0.1,0.2,0.7,0.5,0.9,1.1
				c0.2,0.6,0.2,0.6,0.6,1c0.3,0.3,1.5,0.6,1.5,0.8c0,0.2-0.1,0.5,0,0.6c0,0.1,0,0.1,0,0.2c0,0-0.1,0.2-0.1,0.3c0,0.1,0,0.2,0,0.3
				c0,0-0.1,0.5-0.1,0.5s-0.3-0.1-0.3,0c0,0.1,0.2,0.1,0.2,0.2c0,0.1,0,0.2,0,0.2c0,0-0.1,0.1-0.1,0.1c0,0,0,0.2,0,0.3
				c0,0.1,0,0.1,0,0.1c0,0,0,0.1,0,0.2c0,0.1-0.1,0.2-0.2,0.3c-0.1,0.1-0.2,0.2-0.2,0.2c0,0,0.1,0,0.1,0.1c0,0-0.1,0-0.1,0.1
				c0,0,0.1,0.1,0.1,0.2c0,0-0.1,0.1-0.1,0.1c0,0,0,0.1,0,0.2c0,0.1,0.1,0.2,0,0.3c-0.1,0.1-0.3,0.1-0.1,0.2
				c0.1,0.1,0.1,0.1,0.1,0.1c-0.1,0-0.1,0-0.1,0.1c0,0.1,0.1,0,0,0.1c-0.1,0.1-0.3,0.1-0.2,0.2c0.1,0.1,0,0,0.1-0.1
				c0.1-0.1,0.2,0,0.1,0c0,0.1-0.1,0.1-0.1,0.1c0,0,0.1,0.1,0.1,0.2c0,0-0.1,0-0.1,0.1c0,0,0.1,0.1,0.1,0.1c0,0,0,0,0,0.1
				c0,0,0.1,0,0.1,0c0,0,0.5,0.2,0.6,0.3c0.1,0,0.1,0,0.1,0c0,0,0,0,0,0s0,0,0.1,0c0,0,0.1,0,0.3,0c0.1,0,0.2,0,0.4,0
				c0.1,0,0.2,0,0.2,0c0,0,0,0,0.1,0c0,0,0.2-0.1,0.3-0.1c0.1,0,0.1,0,0.2,0C115.3,47.9,115.3,47.9,115.5,47.9
				C115.5,47.9,115.5,47.9,115.5,47.9L115.5,47.9z M129.5,9.1c0.3,0.3,0.6,0.6,0.9,0.8l0,0l0,0l0,0c0.1,0.1,0.2,0.2,0.3,0.3l0.1,0.1
				l0.1,0.1c0,0,0,0,0.1,0.1c0,0,0.1,0.1,0.2,0.2c0.1,0.1,0.1,0.1,0.1,0.2c0.1,0.1,0.1,0.1,0,0.1c0,0-0.1-0.1-0.1-0.2
				c0-0.1-0.1,0-0.2-0.2c-0.1-0.1-0.1-0.1-0.1-0.2c0-0.1-0.1-0.1-0.2-0.2c0,0-0.2-0.2-0.2-0.3c-0.1-0.1,0.3,0.5,0.4,0.6
				c0,0.1,0.1,0.2,0,0c-0.1-0.1-0.5-0.5-0.6-0.6c-0.1-0.1,0.1,0,0-0.1c0-0.1-0.1-0.1-0.2-0.2c-0.1-0.1,0-0.1,0-0.1c0,0,0.1,0.1,0,0
				c-0.1-0.1-0.1,0-0.2-0.1c0,0-0.2-0.2-0.2-0.2c-0.1-0.1,0,0,0.1,0.1c0,0.1-0.2-0.2-0.3-0.3c0,0-0.1,0-0.1-0.1c0,0-0.1-0.1-0.1-0.1
				C129.3,9.1,129.5,9.2,129.5,9.1c-0.1,0-0.2-0.1-0.3-0.2c-0.1-0.1-0.2-0.2-0.3-0.3c-0.1-0.1,0.2,0.2,0.3,0.2
				C129.4,9,129.6,9.2,129.5,9.1C129.5,9.1,129.5,9.1,129.5,9.1L129.5,9.1z M135.3,17.3c1.1,2.6,1.7,5.5,1.7,8.5
				c0,1.1-0.1,2.1-0.2,3.1h0l0,0c0,0.1,0,0.2,0,0.1c0,0,0-0.5,0-0.5c0,0,0-0.1,0,0c0,0,0,0.1,0,0.1c0,0,0,0.2,0,0.2c0,0,0,0.3,0,0.4
				c0,0,0-0.1,0,0c0,0.1,0,0.2,0,0.3c0,0.1,0,0,0-0.1c0,0,0-0.1,0-0.1c0,0,0-0.3,0-0.3c0,0,0,0,0,0c-0.1,0.6-0.2,1.2-0.3,1.8h0
				c0,0.1,0,0.2-0.1,0.3c-0.1,0.3-0.2,0.6-0.2,0.6c0,0-0.1,0.3-0.1,0.2c0-0.1,0.1-0.7,0.1-0.7s-0.1-0.4,0-0.6c0-0.2,0.1-0.4,0-0.5
				c0-0.1-0.1-0.7-0.1-0.8c0-0.1,0-0.5,0-0.6c0-0.1-0.1,0.2-0.1,0.3c0,0.1,0,0-0.1-0.1c0,0-0.1-0.2-0.1-0.2c0,0,0,0.2,0,0.3
				c0,0,0,0,0,0.2c0,0.1,0,0.3,0,0.4c0,0.1,0,0.5,0,0.6c0,0,0,0.2,0,0.4c0,0.2,0,0.5,0,0.6c0,0,0.1,0.1,0.1,0.2c0,0.1-0.1,0.2,0,0.3
				c0,0,0,0.3,0,0.4c0,0.1,0,0.2,0,0.2c0-0.1,0.3-0.6,0.2-0.4c-0.1,0.2-0.3,0.9-0.4,1.1c-0.1,0.2-0.2,0.6-0.3,0.8
				c-0.1,0.2-0.5,1-0.6,1.2c-0.1,0.2-0.1,0.4-0.2,0.5c-0.1,0.2-0.1,0.2-0.1,0.2c0,0-0.1,0.2-0.1,0.3c-0.1,0.1-0.4,0.8-0.5,0.9
				c0,0.1-0.3,0.5-0.4,0.6c-0.1,0.1-0.2,0.3-0.2,0.3c-0.1,0.1,0,0-0.1,0.1c-0.1,0.1-0.2,0.3-0.3,0.4c0,0,0,0.1-0.1,0.1
				c-0.1,0.1-0.1,0.2-0.2,0.2l0,0v0v0c-0.1,0.1-0.1,0.2-0.2,0.3v0l0,0l0,0l0,0c-0.3,0.4-0.6,0.8-1,1.2c-0.1,0.1-0.3,0.3-0.4,0.4
				c-0.1,0.1-0.2,0.2-0.3,0.3c0,0-0.1,0.1-0.1,0.1c0,0,0-0.1,0-0.1c0-0.1,0.2-0.2,0.2-0.3c0-0.1,0.1-0.3,0.1-0.4
				c0-0.1,0.1-0.3,0.1-0.4c0.1-0.1,0.1-0.3,0.2-0.3c0,0,0-0.1,0-0.1c0,0,0-0.2,0-0.2c0,0-0.1-0.1-0.1-0.2c0-0.1,0.3-0.7,0.4-0.8
				c0,0,0.3-0.3,0.3-0.5c0-0.1,0-0.2,0-0.2c0,0,0-0.1,0-0.2c0,0,0.1-0.1,0-0.1c0,0,0-0.2,0-0.2c0,0,0.1-0.3,0-0.5
				c-0.1-0.1-0.4-0.1-0.3-0.4c0.1-0.2,0.2-0.5,0.3-0.6c0-0.1,0.2-0.4,0.1-0.5c-0.1,0-0.1-0.1-0.2-0.1c-0.1,0-0.2,0.1-0.3,0.1
				c0-0.1-0.2-0.3-0.2-0.3c-0.1,0-0.3,0-0.3,0s-0.2,0.1-0.3,0.2c-0.1,0.1-0.3,0.3-0.5,0.3c-0.2,0-0.4,0-0.5,0.1
				c-0.1,0.1-0.5,0.2-0.7,0.3c-0.2,0-1-0.7-1.1-0.8c-0.1-0.2-0.2-0.6-0.3-0.7c-0.1-0.1-0.4-0.2-0.4-0.4c0.1-0.2,0.2-0.8,0.3-0.8
				c0-0.1,0.2-0.8,0.2-1c0-0.2-0.1-0.6,0-0.6c0.1-0.1,0.6-1.1,0.8-1.3c0.2-0.2,0.7-0.6,0.7-0.6s0-0.1,0.1-0.3
				c0.1-0.2,0.1-0.5,0.3-0.6c0.1-0.2,0.3-0.3,0.4-0.5c0.1-0.2,0.2-0.4,0.2-0.4c0-0.1,0.1-0.2,0.1-0.1c0.1,0.1,0.2,0.1,0.3,0.1
				c0.1,0,0.5,0,0.6-0.1c0.1-0.1,0.3-0.3,0.4-0.3c0.1,0,0.4-0.1,0.7-0.2c0.3,0,0.6-0.2,0.8-0.1c0.1,0.1,0.2,0.1,0.2,0.2
				c0,0.1-0.1,0.2-0.1,0.4c0.1,0.2,0.1,0.4,0.1,0.6c0,0.1,0.1,0.2,0.2,0.2c0.1,0,0.2-0.1,0.3,0.1c0.1,0.2,0.3,0.3,0.5,0.4
				c0.2,0,0.3-0.8,0.4-0.6c0.1,0.1,0.2,0.3,0.4,0.4c0.1,0,0.4,0,0.4,0s0.1-0.2,0.2-0.1c0.1,0.1,0.1,0.2,0.2,0.1
				c0.1-0.1,0.1-0.2,0.1-0.2s0-0.4,0.1-0.6c0-0.2,0.1-0.4,0.1-0.4c0,0,0-0.3,0-0.3c-0.1,0-0.1,0.2-0.2,0.2c0,0-0.1-0.2-0.1-0.1
				c-0.1,0.1-0.1,0.1-0.2,0.1c0,0-0.3,0.2-0.3,0.2s-0.1-0.2-0.1-0.3c0-0.1,0.1-0.2,0.1-0.3c0-0.1-0.1-0.3,0-0.4
				c0-0.1,0.1-0.4,0.1-0.4c0,0-0.2,0.1-0.2,0.2c0,0,0,0.3,0,0.3c0,0-0.2-0.3-0.2-0.2c0,0.1,0,0.2,0,0.4c0,0.2-0.1,0.4-0.1,0.4
				s-0.2-0.2-0.2-0.3c0-0.1-0.1-0.7-0.1-0.7c0-0.1-0.1-0.2-0.1-0.3c0-0.1-0.5-0.5-0.6-0.6c-0.1-0.1-0.3-0.6-0.3-0.5
				c0,0.1-0.1,0.2-0.1,0.2s0.1,0.2,0.1,0.3c0.1,0.1,0,0.2,0.2,0.4c0.2,0.2,0.5,0.6,0.6,0.6c0,0.1,0,0.3,0,0.3s-0.2-0.2-0.2-0.1
				c0,0.1,0.1,0.3,0.1,0.3c0,0.1-0.2,0.4-0.3,0.4c0-0.1-0.1,0-0.1,0.1c0,0,0,0.2-0.1,0.2c0,0-0.4-0.2-0.4-0.3c0,0,0.3-0.1,0.3-0.1
				c0.1,0,0.1,0.1,0.1,0.1c0-0.1,0-0.2,0.1-0.3c0,0,0.1-0.1,0-0.2c-0.1-0.1-0.6-0.6-0.6-0.7c-0.1-0.1-0.3-0.7-0.4-0.7
				c0,0-0.1,0.1-0.2,0.2c0,0-0.2,0.4-0.4,0.3c-0.1-0.1-0.3-0.3-0.4-0.1c-0.1,0.2-0.1,0.2,0,0.3c0.1,0.1,0,0.2,0,0.2
				c0,0-0.1,0-0.2,0.2c-0.1,0.2-0.2,0.2-0.2,0.3c0,0.1-0.2,0.2-0.2,0.4c0,0.2,0,0.1,0,0.2c-0.1,0.1-0.2,0.4-0.3,0.5
				c-0.2,0.1-0.5,0-0.5,0.1c-0.1,0.1-0.2,0.2-0.2,0.2c0,0-0.2-0.2-0.2-0.2c0,0-0.2-0.1-0.2-0.1c0,0-0.3-0.1-0.3-0.2
				c0-0.1-0.2-0.6-0.1-0.8c0.1-0.2,0.2-0.5,0.2-0.6c0-0.1-0.1-0.3-0.1-0.3s-0.1-0.2,0-0.2c0.1,0,0.2-0.2,0.2-0.2
				c0.1,0,0.1,0,0.2,0.1c0.1,0,0.2-0.1,0.3,0c0,0,0.2,0.1,0.3,0.1c0.1,0,0.5,0,0.5,0c0,0,0.2-0.4,0.1-0.6c-0.1-0.2-0.1-0.4-0.2-0.5
				c-0.1-0.1-0.6-0.7-0.6-0.7s0.1-0.1,0.2-0.1c0.1,0,0.5,0.2,0.4,0.1c-0.1-0.1-0.1-0.3-0.1-0.3c0,0,0.2,0,0.3,0c0,0,0.3-0.1,0.3-0.2
				c0-0.1,0.1-0.3,0.2-0.4c0,0,0.1-0.2,0.2-0.3c0.1-0.1,0.2-0.7,0.2-0.7s0.1-0.4,0.2-0.4c0,0,0,0.4,0,0.4c0.1,0,0.1-0.1,0.1-0.2
				c0,0,0.1-0.4,0-0.6c-0.1-0.2,0-0.6,0-0.6c0,0,0.2-0.4,0.3-0.3c0,0.1,0.2,0.6,0.3,0.5c0.1-0.1,0-0.1,0-0.1c0,0-0.1-0.2-0.1-0.3
				c0-0.1-0.1-0.5-0.1-0.6c0,0-0.1-0.1-0.1,0c0,0.1-0.1,0.2-0.2,0.3c-0.1,0.1-0.2,0-0.3,0c0,0-0.5-0.8-0.5-0.9c0-0.1,0.1-0.1,0-0.2
				c0-0.1-0.1-0.2-0.1-0.2c0-0.1,0-0.3,0-0.3c0,0,0.1-0.4,0.1-0.4c0-0.1,0.2-0.4,0.2-0.5c0.1-0.1,0.2-0.3,0.3-0.3
				c0.1,0,0.1,0,0.1-0.2c0-0.2,0.1,0,0.1-0.2c0-0.2-0.1-0.4-0.1-0.5c0,0,0-0.3,0.1-0.3c0-0.1,0.1-0.2,0.1-0.3c0,0,0-0.2,0-0.2
				c0,0-0.1-0.1-0.1-0.1c0,0-0.1,0-0.1,0.1c0,0-0.1-0.1-0.1,0c0,0.1,0.1,0.1,0.1,0.1c0,0-0.1,0-0.1,0c0,0-0.1-0.2-0.1-0.2
				c0-0.1,0.1-0.2,0.1-0.2c0,0,0-0.2,0-0.2c0,0,0.1-0.2,0.1-0.1c0,0,0.1,0.1,0.1,0c0,0,0.1-0.1,0.1-0.1c0,0,0-0.1,0-0.1
				c0-0.1,0-0.1,0.1-0.1c0,0,0.1,0,0.1,0.1c0,0.1,0,0,0.1,0c0,0,0-0.1,0-0.1c0,0,0.3,0.1,0.3,0.1c0.1,0.1,0.2,0.2,0.2,0.2
				s0.1,0,0.1,0.1c0.1,0.1,0.3,0.3,0.2,0.4c0,0.1,0,0.1,0,0.1s0.1,0.2,0.1,0.1c0,0,0.1,0,0.1,0.1c0.1,0.1,0.2,0.2,0.3,0.3
				c0.1,0.1,0.2,0.3,0.3,0.5c0.1,0.2,0.2,0.4,0.2,0.4c0,0.1,0.1,0.1,0.1,0.3c0.1,0.1,0.1,0.2,0.1,0.3c0,0.1,0,0.2,0,0.2c0,0,0,0,0,0
				c0,0-0.1-0.1-0.1-0.2c0-0.1-0.3-0.3-0.3-0.3s-0.1-0.1,0,0.1c0.1,0.1,0.2,0.2,0.2,0.2s0.1,0,0.1,0.2c0,0.1,0,0.1,0,0.2
				c0,0.1,0.1,0.2,0.1,0.2c0,0.1,0.1,0.1,0.1,0.2c0,0.1,0.1,0.1,0.1,0.2c0,0.1,0,0.1,0.1,0.1c0,0,0-0.2,0-0.2c0,0-0.1-0.1-0.1-0.2
				c-0.1-0.1-0.1-0.1-0.1-0.2c0-0.1,0-0.2,0,0c0.1,0.2,0.1,0.2,0.1,0.3c0,0.1,0.1,0.2,0.1,0.2c0-0.1,0-0.1,0-0.2
				c0-0.1-0.1-0.1-0.1-0.2c0-0.1,0-0.2,0-0.2C135.3,17.5,135.2,17.3,135.3,17.3C135.2,17.2,135.2,17.2,135.3,17.3c0,0.2,0,0.2,0,0.3
				c0,0.1,0.1,0.2,0.1,0.2c0,0,0-0.2-0.1-0.2C135.3,17.4,135.3,17.4,135.3,17.3c-0.1,0-0.1-0.1-0.1-0.2c0-0.1,0-0.1,0-0.1
				s0-0.1-0.1-0.2c0-0.1-0.1-0.2-0.1-0.2c0-0.1,0,0,0,0.1c0,0.1,0.1,0.1,0.1,0.2c0,0.1,0.1,0.2,0.1,0.2c0,0.1,0,0.1,0,0.1
				C135.3,17.2,135.2,17.2,135.3,17.3c0,0,0,0,0,0.1c0,0.1,0.1,0.1,0,0C135.3,17.4,135.3,17.3,135.3,17.3L135.3,17.3L135.3,17.3z
				 M111.7,15.8c0.1,0.1,0.1,0.1,0.2,0.1c0.1-0.1,0.2-0.2,0.1-0.2c-0.1,0-0.1,0-0.2,0C111.8,15.7,111.7,15.7,111.7,15.8
				C111.7,15.8,111.7,15.8,111.7,15.8L111.7,15.8z M111.1,16.6c0,0.1,0,0.2,0.1,0.2c0.1-0.1,0.2-0.1,0.2-0.2c-0.1-0.1,0-0.2-0.1-0.1
				C111.2,16.5,111.1,16.6,111.1,16.6L111.1,16.6z M110,16.4c0.1,0.3,0.3,0.2,0.4,0.1c0.1-0.1,0.5-0.3,0.3-0.4
				c-0.2,0-0.4-0.1-0.4,0.1C110.2,16.3,110,16.4,110,16.4L110,16.4z M112,13.1c-0.1,0.1-0.1,0.3,0.1,0.4c0.2,0.1,0.5,0,0.5-0.2
				c0-0.2-0.1-0.4-0.2-0.4c-0.1,0-0.2,0.1-0.3,0.1C112.1,13.2,112.1,13.1,112,13.1C112.1,13.1,112,13.1,112,13.1
				C112,13.1,112,13.1,112,13.1L112,13.1z M108.7,6.2c0.2,0.2,0.6,0,0.4,0.2c-0.2,0.2-0.4,0-0.2,0.2c0.2,0.1,0.5,0,0.5,0
				c0-0.1,0.1-0.3,0.2-0.2c0.1,0.1,0,0.2,0.1,0.2c0.1,0,0.1-0.2,0.1-0.2c0,0,0-0.3,0.1-0.3c0.1,0,0.3-0.1,0.4-0.1
				c0,0,0.3-0.1,0.3-0.2c0,0-0.1-0.1-0.2-0.1c-0.1,0-0.2,0-0.2,0c0-0.1,0.2-0.1,0.1-0.2c-0.1,0-0.4,0-0.4-0.1c0-0.1,0.1-0.2,0-0.2
				c-0.1,0-0.3-0.1-0.3-0.1c0,0,0-0.2,0-0.2c0,0-0.1-0.1-0.2,0c-0.1,0-0.2,0-0.2,0.1c0.1,0,0.2,0,0.2,0c0,0,0,0-0.1,0.1
				c-0.1,0.1-0.3,0.1-0.2,0.1c0,0,0.2,0.1,0.1,0.1c-0.1,0-0.3,0-0.3,0c0,0-0.1,0-0.1,0.1c0,0,0.2,0.2,0.2,0.2s0,0-0.1,0.1
				c-0.1,0.1-0.2,0.1-0.2,0.1c0,0,0-0.1-0.1-0.1c-0.1,0.1-0.1,0.1-0.1,0.1c0,0,0.1,0.1,0.2,0.1c0.1,0,0.1,0,0.3,0
				c0.2,0-0.3,0-0.3,0.1c0,0.1,0.2,0.1,0.2,0.1c0.1,0,0.2-0.1,0.3-0.1c0,0,0.2,0,0.2,0c0,0.1,0.1,0.1,0.1,0.1C109.2,6,109,6,109,6
				C108.9,6,108.6,6.2,108.7,6.2C108.5,6.2,108.7,6.2,108.7,6.2L108.7,6.2z M107.3,8.8c0.1-0.1,0.3-0.4,0.3-0.6
				c-0.1-0.1-0.1-0.4-0.2-0.3c-0.2,0-0.2,0.2-0.3,0.1c-0.1-0.1-0.2-0.2-0.3-0.1c-0.1,0.1,0.1,0.3,0,0.4c-0.1,0-0.4,0.1-0.4,0
				c-0.1-0.1,0-0.3-0.2-0.2c-0.2,0.2-0.1,0.2,0,0.3c0,0.1,0.3-0.1,0.3,0.1c-0.1,0.2-0.1,0.2-0.1,0.2c0.1,0,0.3-0.2,0.4-0.2
				c0.1,0,0.1,0.1,0.1,0.2c0,0.1-0.3,0.3-0.2,0.3c0.1,0.1,0.3,0.1,0.4,0C107.1,8.9,107.3,8.8,107.3,8.8L107.3,8.8z M107.8,7.5
				c-0.1,0-0.1,0-0.2,0c0,0,0,0.1,0.1,0.1c0,0.1,0.2,0.1,0.2,0.2c0,0.1,0.1,0.1,0.1,0.2c0,0.1,0.1,0.1,0,0.2c0,0.1-0.3,0.3-0.3,0.4
				c-0.1,0.1-0.1,0-0.2,0.2c0,0.2,0.1,0.2,0.2,0.3c0.1,0.1,0.3-0.1,0.4-0.1c0.1,0,0.2-0.1,0.2-0.3c0-0.1-0.4-0.2-0.3-0.4
				c0.1-0.2,0-0.3,0-0.3s0-0.1,0.1-0.1c0.1,0,0.3-0.3,0.2-0.1c0,0.3,0.2,0.3,0.2,0.3c0,0.1-0.2,0.2-0.2,0.2c0,0.1-0.1,0.4,0.1,0.5
				c0.2,0.1,0.3,0,0.4,0.1c0.1,0.1,0.3-0.2,0.4-0.1c0.1,0.1,0.1,0.1,0.5,0.1c0.4,0,0.4-0.2,0.5-0.1c0.1,0.1,0.3-0.2,0.4-0.1
				c0.1,0.1,0.4,0.1,0.5,0.1c0.1,0,0.4-0.2,0.4-0.3c-0.1-0.1-0.3-0.1-0.2-0.2c0.1-0.1,0.3-0.1,0.2-0.2C111.4,8.2,111.1,8,111,8
				c-0.1,0-0.3,0.2-0.4,0.1C110.6,8,110.6,8,110.5,8c-0.1,0.1,0,0.2-0.3,0.3c-0.2,0.1-0.5,0.1-0.5,0.1s0-0.2-0.2-0.1
				c-0.1,0.1-0.2,0.1-0.2,0.1s-0.1-0.1-0.3-0.2C108.9,8.1,109,8,109,8c0.1,0-0.3,0-0.2-0.1c0.1-0.1,0.3-0.2,0.3-0.2s0.1-0.3,0.2-0.1
				c0.1,0.1,0.2,0.2,0.4,0.1c0.2,0,0.3-0.3,0.4-0.2c0.1,0.1,0.4,0.1,0.4,0c0-0.1,0-0.2,0.1-0.1c0.1,0.1,0.1,0.1,0.2,0.1
				c0.1,0,0,0,0.1,0c0.1,0,0.2-0.1,0.4,0c0.2,0.1,0.4,0.2,0.5,0.1c0.1-0.1,0.1-0.2,0.2-0.2c0.1-0.1,0.2-0.1,0.1-0.2
				c-0.1-0.1-0.3-0.1-0.5-0.1c-0.1,0-0.2-0.1-0.3,0c-0.1,0-0.3,0.1-0.2,0c0.1-0.1,0.2-0.2,0.3-0.2c0,0.1,0.1,0.1,0.2,0.1
				c0.1,0,0.1,0,0.3,0c0.3-0.1,0.3-0.2,0.2-0.3c-0.1-0.1-0.2-0.1-0.1-0.1c0.1,0,0.4,0,0.5,0c0.1,0-0.2-0.1-0.1-0.2
				c0.2,0,0.4,0.1,0.4-0.1c0-0.1-0.3-0.1-0.2-0.1c0.1,0,0.3-0.1,0.3-0.1c0,0,0.1-0.1-0.1-0.1c-0.1,0-0.3-0.1-0.4-0.1
				c-0.1,0,0.1,0.2-0.2,0.1c-0.2-0.1,0.2-0.1,0.1-0.2c0-0.1-0.1-0.1,0-0.1c0.1,0,0-0.2,0.2-0.1c0.2,0.1,0.2,0.2,0.4,0
				c0.2-0.1,0.3-0.1,0.3-0.2c0-0.1-0.2-0.1-0.1-0.1c0.1,0,0.5,0.2,0.5,0.1c0-0.1-0.3-0.1-0.1-0.2c0.1-0.1,0.2-0.1,0.4-0.1
				c0.2,0,0.2-0.1,0.3-0.2c0-0.1,0.3-0.1,0.4-0.2c0.1-0.1,0.9-0.3,0.8-0.4c-0.2,0-1.2,0.2-1.2,0.2c0-0.1,0.5-0.2,0.5-0.2
				c-0.2,0-0.2,0-0.4-0.1c0.2,0,0.2,0,0.4,0c0,0,0.3,0,0.3,0c0.1,0,0.1-0.1,0.2-0.1c0,0,0.4,0,0.5-0.1c0,0,0.4-0.1,0.3-0.2
				c-0.1,0-0.2-0.1-0.2-0.1c-0.1,0-0.3-0.1-0.3-0.1c0,0-0.1-0.1-0.2-0.1c-0.1,0-0.4,0.1-0.5,0.1c-0.1,0-0.3,0.1-0.3,0
				c0,0,0,0,0.1-0.1c0.1,0,0.6,0,0.2-0.1c-0.4,0-0.6,0-0.7,0c0,0-0.2,0-0.2,0c0,0-0.1,0-0.1,0c-0.1,0-0.1-0.1-0.2,0
				c-0.1,0-0.2,0-0.2,0c0,0,0.2,0.1,0.1,0.1c0,0,0,0.1-0.2,0c-0.1,0-0.3-0.1-0.3-0.1c0,0,0,0-0.2,0c-0.2,0-0.2,0-0.3,0
				c-0.1,0,0,0.1,0.1,0.1c0,0,0.3,0,0.3,0.1c0,0,0,0.1-0.1,0.1c-0.1,0-0.2,0-0.2,0c-0.1,0-0.1-0.1-0.1-0.1c0,0-0.2,0-0.2,0
				s-0.4,0.1-0.3,0.1c0.1,0,0.2,0,0.2,0c-0.1,0-0.2,0.1-0.2,0.1s0.1,0,0,0c-0.1,0-0.2,0-0.2,0S111.4,4,111.4,4c-0.1,0,0,0,0.1,0
				c0.1,0,0.2,0,0.2,0c0,0,0,0.1-0.1,0.1c-0.1,0-0.2,0-0.2-0.1c-0.1,0-0.2,0-0.3,0c0,0-0.1-0.1-0.1-0.1c-0.1,0-0.2,0-0.2,0.1
				c0,0,0.1,0,0,0.1c-0.1,0-0.2,0.1-0.2,0.1c0,0,0.3,0,0.2,0c-0.1,0-0.2,0-0.3,0c0,0,0.1-0.1-0.1,0c-0.1,0-0.1,0.1-0.2,0.1
				c-0.1,0-0.2,0-0.2,0.1c0,0-0.3,0.1-0.3,0.1c-0.1,0.1-0.1,0.1,0,0.1c0,0,0.2-0.1,0.3,0c0,0,0,0,0.1,0c0,0,0.3-0.1,0.3-0.1
				c0,0-0.1,0.1-0.2,0.1c0,0-0.1,0-0.1,0.1c0,0.1-0.1,0.1,0,0.1c0.1,0,0.3-0.1,0.4-0.1c0.1,0,0.4-0.1,0.4-0.1c0,0,0.3-0.2,0.2-0.1
				c-0.1,0.1-0.2,0.1-0.3,0.1c-0.1,0,0.4-0.1,0.5-0.1c0,0,0,0-0.1,0.1c-0.2,0-0.3,0-0.3,0.1c-0.1,0.1-0.1,0.1-0.2,0.1
				c-0.1,0-0.4,0-0.5,0c0,0,0,0.1,0.2,0.1c0.2,0,0.2-0.1,0.3-0.1c0.1,0,0.1,0.1,0.3,0.1c0.2,0,0.6-0.3,0.6-0.2c0,0.1,0,0.1,0.1,0.1
				c0.1,0,0.5-0.2,0.5-0.3c0.1-0.1,0.3-0.3,0.3-0.3c0.1,0,0.1,0.1,0,0.1c-0.1,0.1-0.3,0.2-0.2,0.2c0.2,0,0.6-0.1,0.5,0
				c-0.1,0.1-0.6,0-0.6,0.1c-0.1,0.1,0.2,0.1,0,0.1c-0.2,0-0.4,0-0.4,0.1c0,0-0.4,0-0.3,0.1c0.1,0.1,0.2,0.2,0.3,0.2
				c0,0,0,0.1,0.1,0.1c0.1,0,0.4,0,0.2,0.1c-0.1,0.1-0.1,0.1-0.2,0.1c-0.1,0-0.3,0-0.4-0.1c0-0.1-0.2-0.3-0.4-0.3
				c-0.2,0-0.2-0.1-0.2,0c0,0.1-0.2,0.1-0.1,0.2c0,0.1,0,0.2,0.1,0.3c0.1,0.1,0.2-0.1,0.3,0c0,0.1-0.1,0.1,0.1,0.2
				c0.2,0.1,0.4,0,0.4,0.1c0,0.1-0.1,0.2-0.2,0.2c-0.1,0-0.3,0.1-0.4,0.1c-0.1,0-0.2-0.1-0.4,0c-0.1,0.1-0.6,0.3-0.5,0.3
				c0.1,0,0.4,0,0.4,0c0,0,0.3-0.2,0.2,0c-0.1,0.1-0.2,0.2-0.2,0.3c0,0.1,0.1,0.2,0.2,0.2c0.1,0,0.5-0.2,0.5-0.2
				c0,0.1-0.2,0.2-0.2,0.2c-0.1,0.1-0.1,0.2-0.3,0.1C110.2,7,110,6.9,110,6.9c0-0.1,0.2-0.2,0-0.2c-0.2,0.1-0.3-0.1-0.3,0.1
				c0,0.2,0.1,0.2,0.2,0.2c0.1,0.1,0.2,0.1,0.1,0.1c-0.1,0.1-0.2,0-0.3,0.1c-0.1,0.1-0.3,0.2-0.4,0.2c-0.1,0.1-0.2,0.2-0.3,0.2
				c-0.1,0-0.5,0.1-0.5,0.1s0.1,0-0.1-0.1c-0.1-0.1-0.2-0.2-0.3-0.1c-0.1,0-0.2,0-0.2,0S107.9,7.5,107.8,7.5
				C107.9,7.5,107.8,7.5,107.8,7.5L107.8,7.5z M109.1,7.1c0,0-0.1,0.2-0.1,0.2c0,0,0,0.1,0.1,0.1c0.1,0,0.1-0.1,0.2-0.1
				c0,0,0-0.2,0-0.2C109.3,7,109.2,7,109.1,7.1C109.1,7,109.1,7.1,109.1,7.1L109.1,7.1z M108,7.2c0,0,0.3,0.1,0.4,0
				c0,0,0.2,0,0.2-0.1c0-0.1-0.2-0.1-0.3-0.1c0,0-0.1,0-0.2,0C108.1,7.1,108,7.2,108,7.2L108,7.2z M106,7.3c-0.1,0-0.1,0.3,0,0.4
				c0.1,0.1,0.3,0,0.3-0.1c0-0.1-0.2-0.2-0.2-0.3C106,7.4,106,7.3,106,7.3L106,7.3z M107.7,5.7c-0.1,0.1,0.1,0.3,0.1,0.2
				c0.1-0.1,0.2-0.2,0.2-0.3c-0.1,0-0.1-0.1-0.1,0C107.8,5.7,107.7,5.7,107.7,5.7L107.7,5.7z M107.8,6.5c0,0.1,0.1,0.2,0.1,0.3
				c0,0.1-0.3,0.1-0.1,0.2c0.2,0.1,0.3,0,0.4,0c0.1,0,0.4-0.1,0.3-0.2c-0.1-0.1,0-0.2-0.3-0.3C107.9,6.4,107.8,6.5,107.8,6.5
				L107.8,6.5z M106.3,6.4c-0.1,0.1,0.2,0.2,0.2,0.2c0,0,0.3,0,0.1,0.1c-0.2,0.1-0.3,0.1-0.3,0.2c0,0.1,0.2,0.1,0.3,0.1
				c0.1,0,0.3-0.1,0.3-0.1c0.1,0,0.2,0,0.2,0.1c0,0.1-0.1,0.1,0.1,0.1c0.2,0,0.2,0.1,0.2-0.1c0.1-0.1,0-0.2,0-0.4
				c0-0.1-0.3-0.2-0.5-0.2c-0.2,0-0.2-0.1-0.2-0.1c0,0-0.1,0-0.2,0.1C106.3,6.4,106.3,6.4,106.3,6.4L106.3,6.4z M104.5,7.4
				c0,0.1,0.3,0,0.3,0s0.3,0,0.4-0.1c0-0.1,0-0.2-0.1-0.2c-0.1,0-0.1,0.1-0.2,0.1C104.8,7.2,104.5,7.4,104.5,7.4L104.5,7.4z
				 M104.1,7.8c0.1,0,0.3-0.1,0.3,0c-0.1,0.1,0.2,0.1,0.3,0.1c0.1,0,0.4-0.4,0.4-0.4s0.3-0.1,0.2-0.2c-0.1,0-0.1-0.1-0.4,0.1
				c-0.3,0.1-0.2,0.2-0.3,0.2C104.4,7.6,104.1,7.8,104.1,7.8L104.1,7.8z M102.5,9.3c-0.1,0-0.2,0.2-0.3,0.1c-0.1,0,0-0.3,0.1-0.3
				c0.1,0,0.9-0.7,1-0.8c0.1-0.1,0.4-0.3,0.5-0.3c0.1-0.1,0.2-0.2,0.2-0.1c0,0.1-0.1,0.2-0.1,0.2c0,0-0.2,0.2-0.2,0.2
				c0,0.1,0,0.2-0.1,0.3c-0.1,0.1-0.2,0.3-0.3,0.2c-0.1,0,0.1-0.3-0.1-0.2c-0.1,0.1-0.2,0.2-0.3,0.4c-0.1,0.1-0.2,0.3-0.3,0.3
				C102.5,9.4,102.6,9.3,102.5,9.3C102.6,9.3,102.5,9.3,102.5,9.3L102.5,9.3z M102.9,9.5c0.1-0.1,0.2-0.1,0.2-0.3
				c0-0.1,0.1-0.2,0-0.2c-0.1,0.1-0.3,0.2-0.3,0.3C102.8,9.4,102.8,9.5,102.9,9.5C102.8,9.5,102.9,9.4,102.9,9.5L102.9,9.5z
				 M103.1,9.5c0,0.1,0.4,0.1,0.4,0.1c0.1,0,0.3-0.3,0.3-0.3c0,0.1,0.2,0,0.3,0c0.1,0,0.3,0,0.2,0c-0.1,0.1-0.3,0.1-0.4,0.2
				c-0.1,0.1-0.4,0.3-0.4,0.3c0,0,0.2,0.1,0.3,0c0.1,0,0.2,0,0.4-0.2c0.3-0.2,0.4-0.5,0.5-0.4c0.1,0,0,0.2,0.2,0.1
				c0.1-0.1,0.3-0.1,0.3-0.1s0,0.1,0.1,0c0.1-0.1,0.2-0.3,0.2-0.3s0.2-0.1,0.2-0.3c-0.1-0.1,0-0.4-0.2-0.2c-0.2,0.2-0.2,0.2-0.2,0.1
				c0-0.1-0.2-0.2-0.1-0.2c0.1-0.1,0.2-0.2,0.1-0.2c-0.1,0-0.1,0-0.3,0.1c-0.2,0.1-0.2,0.2-0.2,0.2s0.1,0.1,0.1,0.2
				c0,0.1-0.1,0.1-0.1,0.1c0,0,0.2,0,0.1,0.1c0,0.1-0.1,0.3-0.2,0.2c-0.1,0-0.3-0.1-0.3-0.1c0,0,0-0.2-0.1-0.3
				c-0.1,0-0.2-0.3-0.3-0.1c-0.2,0.2-0.3,0.2-0.3,0.3c0,0.1-0.3,0.1-0.2,0.2c0.1,0.1,0.3,0.1,0.2,0.1c-0.1,0.1-0.2,0.1-0.3,0.2
				C103.2,9.4,103.1,9.5,103.1,9.5L103.1,9.5z M106,10.5c0,0.2,0.6,0.5,0.6,0.6c0,0.2,0,0.3,0.1,0.3c0.1,0,0.4-0.2,0.4-0.3
				c0-0.1,0.3-0.4,0.2-0.6c-0.1-0.1-0.4-0.2-0.3-0.3c0.1-0.1,0.3-0.4,0.2-0.5c0,0,0.1-0.3-0.1-0.2c-0.2,0.1-0.2,0.5-0.4,0.4
				c-0.1-0.1-0.1-0.3-0.2-0.1c-0.1,0.2-0.3,0.2-0.3,0.3c0,0.1,0.2,0.3,0.2,0.3c0,0.1-0.1,0.2-0.2,0.2C106.2,10.5,106,10.4,106,10.5
				C106,10.5,106,10.5,106,10.5L106,10.5z M102.3,11.4c0.1-0.1,0.8-0.6,0.9-0.7c0-0.1,0.1-0.2-0.2-0.3c-0.3-0.1-0.1-0.2-0.3,0
				c-0.2,0.1-0.3,0.1-0.3,0.1s0-0.3-0.2-0.3c-0.2,0.1-0.2,0.1-0.3,0.1c-0.1,0-0.3,0-0.4,0.2c0,0.1,0.2,0,0.1,0.2
				c-0.1,0.2-0.3,0.3-0.3,0.4c0,0.1,0,0.2-0.1,0.3c-0.1,0.1-0.3,0.4-0.3,0.4c0,0.1-0.1,0.2,0.1,0.3c0.2,0.1,0.3,0.1,0.3,0.2
				c0,0.1,0,0.2,0.1,0.2c0.1,0,0.3-0.4,0.3-0.4s0.2,0,0.2-0.1c0-0.1,0.1-0.3,0.2-0.4C102.1,11.5,102.3,11.4,102.3,11.4L102.3,11.4z
				 M105.1,10.1c0,0.1,0.3,0.4,0.4,0.2c0.1-0.1,0.2-0.1,0.1-0.3c-0.1-0.1-0.2-0.1-0.3-0.1C105.2,10.1,105.1,10.1,105.1,10.1
				L105.1,10.1z M105.7,12.9c-0.1-0.1-0.3-0.3-0.2-0.4c0.1-0.1,0.6-0.1,0.5-0.2c0-0.1-0.6-0.6-0.6-0.8c0-0.1-0.1-0.6-0.1-0.7
				c0,0,0-0.3,0-0.3s-0.5-0.2-0.5,0c0,0.1-0.1,0.3,0,0.4c0.1,0.1,0.2,0.3,0.1,0.3c-0.1,0.1-0.4,0.3-0.4,0.1c0-0.1,0.2-0.6,0-0.6
				c-0.2,0-0.5,0.5-0.5,0.4c-0.1-0.1,0-0.4-0.1-0.5c-0.1,0-0.5,0.4-0.5,0.3c0-0.1,0.1-0.4,0-0.4c-0.1,0.1-0.8,0.4-0.8,0.5
				c0,0.1-0.1,0.2-0.1,0.2s-0.4,0.2-0.3,0.3c0,0.1,0.3,0.3,0.4,0.2c0.1,0,0.4-0.4,0.4-0.3c0,0.1-0.3,0.4-0.3,0.4s-0.3-0.2-0.4,0.1
				c0,0.2,0.2,0.4,0.3,0.3c0.1,0,0.5-0.3,0.8-0.3c0.3,0,0.4,0,0.3,0.2c-0.1,0.1-0.3,0-0.6,0.1c-0.3,0.1-0.7,0.1-0.7,0.2
				c0,0.1,0.1,0.3,0.2,0.3c0.1,0.1,0.6-0.2,0.6,0c0,0.2,0,0.4,0,0.4s0.5,0,0.6-0.1c0.1-0.1,0.4-0.2,0.6-0.3c0.2-0.2,0.3-0.4,0.5-0.2
				c0.2,0.1,0.5,0.2,0.6,0.2C105.6,13,105.7,12.9,105.7,12.9L105.7,12.9z M113.3,32.9c-0.1,0.1-0.7,0.1-0.5,0.3
				c0.2,0.2,0.4,0.1,0.5,0.2c0.2,0.1,0.4,0.2,0.5,0.1c0-0.1,0-0.2,0.2-0.2c0.1,0,0.6-0.1,0.6-0.1c0,0-0.4-0.4-0.6-0.4
				c-0.2,0-0.2,0-0.3,0.1C113.4,33,113.3,32.9,113.3,32.9L113.3,32.9z M110,32.1c0.1-0.1,0.6-0.5,0.8-0.3c0.2,0.2,0.6,0.1,0.7,0.2
				c0.1,0,0.8,0.3,0.9,0.5c0.1,0.2,0.4,0.3,0.2,0.4c-0.2,0.1-0.6,0.1-0.8-0.1c-0.2-0.2-0.5-0.4-0.7-0.4c-0.2,0-0.6-0.1-0.7-0.1
				c0,0,0.1,0.1-0.1,0.1c-0.2,0-0.3-0.1-0.3-0.1C110,32.2,110,32.1,110,32.1L110,32.1z M131.8,26.4c0,0-0.2,0.2-0.2,0.2
				c0,0,0,0.2,0.1,0.1c0,0,0.1-0.2,0.1-0.2c0,0,0.1-0.1,0.1,0c0.1,0,0.1-0.1,0.1-0.1c0-0.1,0.2,0,0.1-0.2c-0.1-0.1-0.2-0.2-0.2-0.1
				C131.9,26.2,131.9,26.4,131.8,26.4C131.8,26.4,131.8,26.4,131.8,26.4L131.8,26.4z M132.9,25.4c-0.1,0.1-0.1,0.2,0,0.3
				c0.1,0.1,0.1,0.2,0,0.3c0,0-0.2,0-0.1,0.1c0,0.1,0.1,0.2,0.1,0.3c0,0.1,0,0.3,0,0.3s0.2,0.2,0.2-0.1c0-0.2,0-0.5,0-0.5
				c0-0.1-0.1-0.1,0-0.3c0-0.2,0-0.3,0-0.4C133,25.3,132.9,25.4,132.9,25.4L132.9,25.4z M120.9,17.8c0,0,0.2-1.4,0.4-1.6
				c0.2-0.2,0.5-0.5,0.5-0.7c-0.1-0.2,0.1-0.7,0.2-0.7c0.1,0,0.5-0.6,0.7-0.4c0.1,0.2,0.1-0.1,0.2-0.1c0.1-0.1,0.8-0.8,0.7-0.9
				c-0.1-0.2-0.1-0.4-0.1-0.4s0.3,0.4,0.5,0.4c0.2,0,1.7-0.9,1.7-0.9s-0.5-0.3-0.8-0.3c-0.2,0.1-0.4-0.2-0.3-0.2
				c0.1-0.1,0.4-0.1,0.3-0.2c-0.1-0.1-0.2-0.3,0-0.2c0.2,0.1,0.4,0.5,0.4,0.5s0.2,0.3,0.3,0.2c0.1-0.1,0.4-0.3,0.3-0.5
				c-0.1-0.2-0.5-0.6-0.6-0.7c-0.1-0.1-0.6-0.5-0.6-0.5s0.4,0,0.5,0.1c0.1,0.1,0.1-0.1,0.1-0.1s0-0.3,0.1-0.2
				c0.1,0.1,0.4,0.1,0.4,0.1s-0.1-0.3-0.1-0.3c0,0-0.5-0.3-0.4-0.3c0.1,0,0.4-0.1,0.5-0.1c0.1,0-0.1-0.2-0.3-0.3
				C125.2,9.4,125,9,125,9.1c0.1,0.1,0.5,0.4,0.5,0.3c0-0.1-0.5-0.7-0.6-0.7c-0.1,0-0.3-0.1-0.2-0.2c0.1-0.1,0.2-0.3,0.3-0.1
				c0.1,0.1,0.4,0.3,0.4,0.3c0,0-0.1-0.5-0.1-0.5s-0.1,0-0.2,0c0,0-0.3-0.1-0.3-0.1c0-0.1,0.1-0.2,0.1-0.2c0,0-0.2,0-0.2,0
				c0,0-0.2,0-0.2-0.1c0-0.1-0.1-0.2,0-0.2c0.1,0,0.2,0,0.1-0.1c-0.1-0.2-0.2-0.2-0.2-0.3c0,0,0.3-0.1,0.3-0.1c0,0-0.2-0.3-0.2-0.3
				s0.2-0.1,0.2-0.1c0,0-0.2-0.1-0.2-0.1s0.1,0.1-0.1,0.1c-0.1,0-0.2,0-0.2-0.1c0-0.1,0-0.1,0.1-0.1c0.1,0,0.4,0.3,0.4,0.2
				c0.1-0.1,0.2,0,0.1-0.1c-0.1-0.1-0.1-0.1-0.3-0.2c-0.2-0.1-0.3-0.2-0.4-0.1c-0.1,0-0.2,0-0.2,0c0,0,0.1-0.1,0.2,0
				c0.1,0,0.2,0.1,0.3,0.1c0.1,0,0.3,0.1,0.3,0.1s0.1,0,0.1,0c0,0,0.3,0,0.2-0.1c-0.1-0.1-0.7-0.4-0.9-0.5c-0.2,0,0.1,0.1-0.1,0
				c-0.2-0.1-0.2-0.1-0.2-0.1c0,0,0.3,0.2,0.2,0.1c-0.1,0-0.1,0-0.2-0.1c-0.1-0.1-0.2-0.2-0.2-0.1c0,0.1-0.2,0-0.2,0.1
				c0,0.1,0,0.2,0,0.2c-0.1,0-0.3,0-0.3-0.1c0.1,0,0.1-0.1,0.1-0.1c0-0.1,0-0.1,0-0.2c-0.1-0.1-0.2-0.2-0.3-0.2c-0.1,0-0.3,0-0.2,0
				c0,0-0.1,0.1-0.2,0.1c-0.1,0-0.3,0-0.3,0s0.3,0,0.3,0c0,0,0.1,0,0-0.1c-0.1,0-0.2-0.1-0.2-0.1c-0.1,0-0.3-0.1-0.5-0.1
				c-0.2,0-0.2,0-0.4,0c-0.2,0-0.4,0-0.3-0.1c0.1,0,0.2,0,0.3,0c0.1,0,0.4,0,0.5,0.1c0.2,0.1,0.4,0.1,0.4,0.1c0,0,0.2,0.1,0.4,0.1
				c0.1,0,0.2,0,0.2,0c0,0,0.1,0-0.1-0.1c-0.2-0.1-0.5-0.2-0.6-0.2c0,0-0.1,0-0.1,0c0,0,0,0,0,0c0,0-0.1,0-0.2-0.1
				c-0.1,0-0.1,0-0.3-0.1c-0.2-0.1-0.4-0.1-0.5-0.2c-0.1,0-0.2,0-0.4-0.1c-0.1,0-0.5-0.1-0.4-0.1c0,0,0.2,0,0.4,0.1
				c0.2,0,0.3,0.1,0.4,0.1c0.1,0,0.6,0.2,0.6,0.2c0,0,0.2,0,0.1,0c0,0-0.5-0.2-0.6-0.2c-0.1,0-0.4-0.1-0.6-0.2
				c-0.1,0-0.5-0.1-0.7-0.2c-0.2,0,0.1,0,0,0c-0.1,0-0.3-0.1-0.3-0.1s0.1,0,0,0c-0.2,0-0.2,0-0.2,0c0,0,0,0,0.1,0
				c0.1,0,0.3,0.1,0.2,0.1c-0.1,0-0.4-0.1-0.3,0c0.1,0,0.2,0.1,0.1,0.1c-0.1,0-0.1,0-0.1,0c0,0,0.3,0.1,0.1,0.1
				c-0.2,0-0.5-0.1-0.6-0.2c-0.1,0-0.3-0.1-0.3-0.1c0,0,0.2,0.1,0.1,0.1c-0.1,0-0.3-0.1-0.3,0c0,0-0.1,0,0.1,0.1
				c0.2,0,0.4,0.1,0.6,0.1c0.2,0.1,0.3,0.1,0.3,0.1s0,0.1-0.1,0c-0.1-0.1-0.2-0.1-0.4-0.2c-0.2,0-0.9-0.2-0.7-0.1
				c0.3,0.1,0.4,0.1,0.5,0.2c0.1,0,0.6,0.2,0.3,0.1c-0.3-0.1-0.4-0.1-0.5-0.1c0,0.1,0,0.1,0,0.1c0,0,0.3,0.1,0.2,0.1
				c-0.2,0-0.1,0.1-0.2,0c-0.1,0-0.2-0.1-0.3-0.2c-0.1,0-0.5-0.1-0.4-0.2c0.2,0,0.2,0,0.2,0s0,0-0.1,0c-0.1,0-0.1-0.1-0.2-0.1
				c-0.1,0,0,0-0.1,0c0,0-0.1,0-0.1,0c0,0-0.2,0-0.2,0c0,0,0,0,0,0.1c0,0,0,0,0.1,0.1c0.1,0.1,0.2,0.1,0.2,0.1c0,0,0,0.1-0.1,0
				c-0.1,0-0.3-0.1-0.3-0.1c0.1,0,0-0.1-0.1-0.1c-0.1,0-0.2,0-0.2,0s0.1,0.1,0,0c-0.1,0-0.1,0-0.2-0.1c-0.1,0,0-0.1-0.2,0
				c-0.2,0-0.3,0-0.3,0c-0.1,0-0.5,0-0.5,0c0,0,0.6,0.3,0.5,0.3c-0.1,0-0.5-0.3-0.7-0.3c-0.2,0-0.2,0-0.2,0c0,0-0.2,0-0.2,0
				c0.1,0.1,0.2,0.1,0.3,0.1c0,0,0,0.1-0.1,0.1c0,0,0.2,0.1,0.1,0.1c-0.2,0-0.4-0.1-0.4-0.1c0,0-0.1,0-0.3,0.1
				c-0.2,0.1-0.4,0.2-0.5,0.3c-0.1,0,0-0.1-0.2,0c-0.1,0.1-0.1,0.1-0.1,0.2c0,0,0,0,0.1,0.1c0.2,0.1,0.4,0,0.6,0
				c0.2,0,0.3,0,0.2,0.1c-0.1,0.1-0.3,0-0.2,0.1c0.1,0.1,0.3,0.1,0.2,0.2c-0.1,0.1-0.2,0.1-0.3,0.2c-0.1,0.1-0.4,0.1-0.6,0.1
				c-0.2,0-0.1,0.1-0.3,0.1c-0.1,0-0.8,0.2-0.7,0.4c0.1,0.2,0.4,0.2,0.5,0.4c0.1,0.2,0.1,0.2,0,0.2c-0.1,0,0,0.1,0.2,0.1
				c0.1,0,0.4-0.2,0.5-0.2c0.1,0,0.4,0,0.2,0.1c-0.2,0.1-0.4-0.1-0.5,0.1c-0.1,0.2-0.2,0-0.3,0.1c0,0.1-0.3,0-0.3,0.1
				c0,0.1,0.1,0.1,0.3,0.3c0.1,0.2,0,0.1,0.2,0.3c0.1,0.1,0.4,0.2,0.8,0.2c0.4,0,0.7-0.3,0.9-0.2c0.2,0.1,0.5,0.2,0.8,0.3
				c0.2,0.2,0.5,0.2,0.5,0.4c0,0.2,0.1,0.4,0.1,0.5c0,0.1,0.2,0.2,0.2,0.3c0,0.1,0.3,0.3,0.2,0.4c-0.1,0.1,0.1,0,0.3,0.2
				c0.2,0.2,0.3,0.1,0.2,0.3c-0.1,0.1-0.2,0.1-0.1,0.2c0.1,0.2-0.1,0.1-0.1,0.2c-0.1,0.1-0.1,0.1,0,0.3c0.1,0.2,0.3-0.1,0.5-0.1
				c0.2,0,0.4-0.2,0.5,0.1c0.1,0.3,0.2,0.4,0.2,0.6c0,0.2-0.1,0.2-0.4,0c-0.3-0.3-0.5-0.1-0.5,0c-0.1,0.1,0.4,0.1,0.4,0.3
				c0,0.1-0.5,0-0.5,0.1c0,0.1,0.5,0.7,0.5,0.7c0.2-0.2,0.2-0.2,0.3-0.4c0,0-0.3-0.4,0-0.3c0.3,0.1,0.3,0.1,0.3,0.2
				c0,0.2-0.2,0.2-0.1,0.4c0,0.2-0.1,0.4-0.3,0.5c-0.2,0.1-0.2,0.4-0.3,0.5c-0.1,0.1,0.3,0.7,0.3,0.8c0,0.1,0.4,0.5,0.5,0.6
				c0.1,0.1,0.8,0.3,0.3,0.4c-0.4,0.1-0.5,0.2-0.4,0.4c0.1,0.2,1.1,1.2,1.1,1.4c-0.1,0.2-0.2,0.1-0.2,0.3c0.1,0.2,0.4-0.1,0.5,0.1
				c0.1,0.1,0.2,0,0.3,0.2c0.1,0.2,0.2,0.4,0.2,0.4S120.9,17.9,120.9,17.8L120.9,17.8z M125.8,15.6c0.2,0.1,0.4,0,0.4,0.2
				c-0.1,0.1-0.1,0.2-0.1,0.3c0.1,0.1,0.3,0,0.4,0.1c0,0.1,0.8,0.1,0.8,0.1s0.6-0.4,0.6-0.5c0.1-0.1,0.3-0.2,0-0.5
				c-0.2-0.3-0.5-0.6-0.6-0.5c-0.2,0.1-0.4,0.2-0.6,0.2c-0.2,0-0.5-0.2-0.5-0.2s0-0.4-0.2-0.2c-0.2,0.2-0.4,0.5-0.3,0.6
				c0.1,0.1,0.4,0.2,0.4,0.2s-0.5,0.1-0.4,0.2C125.6,15.6,125.8,15.6,125.8,15.6L125.8,15.6z M130,21.8c0,0.1-0.5,0.5-0.6,0.4
				c-0.1-0.1-0.4-0.3-0.3-0.4c0.1,0,0.3-0.1,0.3-0.3c-0.1-0.2-0.3-0.4-0.2-0.5c0-0.1,0.4-0.3,0.4-0.3s0.3-0.2,0.3-0.1
				c0,0.1,0.1,0.1,0.1,0.2c0,0.1,0,0.4,0,0.4s0,0.2,0,0.3C130,21.7,130,21.8,130,21.8L130,21.8z M130.4,21.6c0,0.3,0,0.3-0.1,0.4
				c-0.1,0,0,0.1,0,0.2c0,0.1,0.2,0,0.1,0.2c-0.1,0.1-0.5,0.4-0.4,0.4c0.2,0.1,0.8-0.1,0.8-0.1s0.5,0,0.6-0.1c0.1-0.1-0.1-0.3,0-0.4
				c0.1-0.1,0.1-0.2,0.1-0.3c0-0.1-0.1-0.5-0.3-0.7c-0.2-0.1-0.8-1-0.7-1c0.1,0,0.4-0.2,0.2-0.4c-0.2-0.2-0.4-0.2-0.4-0.3
				c0-0.1,0.1-0.2,0.1-0.2c-0.1-0.1-0.1-0.1-0.2-0.1c0,0-0.2,0.1-0.2,0.1c-0.1,0.1-0.1,0.1-0.2,0.1c-0.1,0-0.2,0-0.2,0
				s0.2,0.2,0.2,0.3c0,0-0.2,0.2-0.2,0.2c0.1,0.1,0.1,0.1,0.2,0.1c0,0.1,0,0.1,0,0.1c0,0,0.2-0.1,0.2,0c-0.1,0.1-0.1,0-0.1,0.1
				c0,0.1,0.1,0.1,0.1,0.2c0,0.1,0.2,0,0.2,0.1c0,0.1,0.1,0,0.1,0.1c0,0.2-0.1,0.3,0,0.3c0.1,0,0.3,0,0.3,0.1c0,0.1-0.2,0.4-0.2,0.4
				C130.4,21.5,130.4,21.5,130.4,21.6L130.4,21.6z"/>
		</g>
	</g>
</g>
</svg>
